<svg width="138" height="138" viewBox="0 0 138 138" fill="none" xmlns="http://www.w3.org/2000/svg">
<path d="M56.0625 116.438C56.0625 118.143 55.5567 119.811 54.6089 121.229C53.6612 122.648 52.3142 123.753 50.7381 124.406C49.1621 125.059 47.4279 125.23 45.7548 124.897C44.0818 124.564 42.5449 123.743 41.3387 122.536C40.1325 121.33 39.311 119.793 38.9782 118.12C38.6454 116.447 38.8162 114.713 39.469 113.137C40.1218 111.561 41.2273 110.214 42.6457 109.266C44.0641 108.318 45.7316 107.812 47.4375 107.812C49.725 107.812 51.9188 108.721 53.5363 110.339C55.1538 111.956 56.0625 114.15 56.0625 116.438ZM103.5 107.812C101.794 107.812 100.127 108.318 98.7082 109.266C97.2898 110.214 96.1843 111.561 95.5315 113.137C94.8787 114.713 94.7079 116.447 95.0407 118.12C95.3735 119.793 96.195 121.33 97.4012 122.536C98.6074 123.743 100.144 124.564 101.817 124.897C103.49 125.23 105.225 125.059 106.801 124.406C108.377 123.753 109.724 122.648 110.671 121.229C111.619 119.811 112.125 118.143 112.125 116.438C112.125 114.15 111.216 111.956 109.599 110.339C107.981 108.721 105.787 107.812 103.5 107.812ZM129.219 39.9661L115.397 89.7108C114.637 92.4281 113.012 94.8236 110.768 96.5338C108.523 98.244 105.783 99.1757 102.961 99.1875H49.68C46.8501 99.1862 44.0983 98.2594 41.8442 96.5484C39.5901 94.8374 37.9575 92.4361 37.1953 89.7108L18.285 21.5625H8.625C7.48125 21.5625 6.38435 21.1081 5.5756 20.2994C4.76685 19.4906 4.3125 18.3937 4.3125 17.25C4.3125 16.1063 4.76685 15.0094 5.5756 14.2006C6.38435 13.3919 7.48125 12.9375 8.625 12.9375H21.5625C22.5053 12.9373 23.4222 13.2461 24.1729 13.8166C24.9235 14.3872 25.4665 15.1879 25.7187 16.0964L30.829 34.5H125.062C125.727 34.4999 126.383 34.6535 126.979 34.9488C127.574 35.2441 128.094 35.6731 128.496 36.2023C128.899 36.7315 129.173 37.3466 129.299 37.9995C129.424 38.6524 129.397 39.3255 129.219 39.9661ZM119.386 43.125H33.2278L45.5238 87.4036C45.776 88.3121 46.319 89.1129 47.0696 89.6834C47.8203 90.2539 48.7372 90.5627 49.68 90.5625H102.961C103.904 90.5627 104.821 90.2539 105.571 89.6834C106.322 89.1129 106.865 88.3121 107.117 87.4036L119.386 43.125Z" fill="black"/>
</svg>
